<?xml version="1.0" standalone="no"?>
<!DOCTYPE svg PUBLIC "-//W3C//DTD SVG 20010904//EN"
 "http://www.w3.org/TR/2001/REC-SVG-20010904/DTD/svg10.dtd">
<svg version="1.0" xmlns="http://www.w3.org/2000/svg"
 width="700.000000pt" height="700.000000pt" viewBox="0 0 700.000000 700.000000"
 preserveAspectRatio="xMidYMid meet">
<metadata>
Created by potrace 1.14, written by Peter Selinger 2001-2017
</metadata>
<g transform="translate(0.000000,700.000000) scale(0.100000,-0.100000)"
fill="#000000" stroke="none">
<path d="M5185 6159 c-35 -10 -5158 -5127 -5176 -5171 -17 -41 -3 -93 32 -122
29 -25 39 -28 74 -28 38 0 49 5 104 56 l58 54 147 0 c127 0 146 -2 146 -16 0
-45 65 -98 118 -95 6 0 20 1 29 2 10 0 350 333 756 739 l738 737 62 -65 c76
-80 212 -201 292 -260 33 -25 64 -49 70 -53 24 -19 127 -84 210 -131 276 -158
582 -259 930 -307 144 -20 506 -16 640 6 354 60 594 141 870 295 53 29 213
131 240 152 6 5 46 36 90 70 172 134 373 349 507 543 47 68 178 289 178 300 0
2 17 41 39 87 42 90 96 232 118 313 22 77 51 197 56 230 3 17 8 46 11 65 3 19
8 49 11 65 29 163 26 530 -4 715 l-9 55 42 47 c30 34 46 45 61 41 47 -12 76
-15 98 -9 35 8 265 243 272 277 10 44 -3 86 -37 114 -34 29 -15 27 -340 26
l-236 0 -23 57 c-64 159 -213 412 -325 551 -101 127 -198 230 -319 341 -83 76
-323 250 -344 250 -6 0 -11 3 -11 8 0 4 -10 12 -23 18 -12 6 -36 19 -54 28
-42 22 -62 25 -98 15z"/>
</g>
</svg>
