<?xml version="1.0" standalone="no"?>
<!DOCTYPE svg PUBLIC "-//W3C//DTD SVG 20010904//EN"
 "http://www.w3.org/TR/2001/REC-SVG-20010904/DTD/svg10.dtd">
<svg version="1.0" xmlns="http://www.w3.org/2000/svg"
 width="960.000000pt" height="960.000000pt" viewBox="0 0 960.000000 960.000000"
 preserveAspectRatio="xMidYMid meet">
<metadata>
Created by potrace 1.14, written by Peter Selinger 2001-2017
</metadata>
<g transform="translate(0.000000,960.000000) scale(0.100000,-0.100000)"
fill="#000000" stroke="none">
<path d="M8017 7774 c-1 -2 -21 -5 -44 -8 -113 -13 -322 -86 -426 -149 -173
-103 -254 -164 -424 -325 -194 -181 -251 -232 -263 -232 -5 0 -10 -4 -12 -8
-4 -11 -81 -62 -151 -101 -82 -45 -257 -111 -427 -160 -80 -23 -208 -60 -285
-83 -159 -46 -296 -95 -403 -144 -41 -19 -75 -34 -76 -34 -2 0 -96 -45 -210
-100 -113 -55 -208 -100 -211 -100 -2 0 -28 -11 -57 -25 -90 -41 -196 -80
-378 -139 -392 -126 -584 -200 -860 -331 -191 -90 -341 -143 -485 -171 -11 -2
-32 -6 -47 -9 -15 -4 -39 -8 -55 -10 -15 -2 -39 -7 -53 -9 -13 -3 -42 -8 -65
-11 -22 -3 -56 -8 -75 -10 -19 -3 -53 -8 -75 -11 -22 -2 -67 -9 -100 -14 -33
-5 -78 -12 -100 -15 -22 -4 -51 -8 -65 -11 -14 -2 -45 -7 -70 -10 -25 -3 -54
-7 -65 -9 -11 -1 -38 -6 -60 -10 -22 -4 -74 -13 -115 -22 -41 -8 -80 -16 -87
-17 -7 -1 -16 -5 -19 -9 -4 -4 -16 -7 -26 -7 -29 0 -141 -57 -181 -92 -40 -36
-50 -59 -27 -64 28 -6 235 -44 265 -49 142 -21 325 -57 325 -64 0 -4 -46 -7
-103 -8 -160 -3 -355 -13 -514 -28 -29 -3 -77 -7 -105 -10 -161 -14 -277 -26
-312 -31 -21 -3 -60 -7 -87 -9 -27 -2 -62 -6 -77 -9 -15 -3 -54 -8 -87 -11
-33 -3 -76 -8 -95 -10 -19 -2 -78 -9 -130 -15 -52 -6 -108 -13 -125 -15 -16
-2 -61 -7 -100 -10 -38 -4 -81 -9 -95 -11 -14 -3 -90 -7 -170 -10 -240 -8
-333 -12 -365 -18 -53 -8 -122 -43 -159 -80 -33 -33 -36 -42 -36 -91 0 -35 7
-67 19 -88 17 -31 18 -36 4 -49 -23 -24 -23 -67 1 -83 11 -8 30 -15 41 -16 22
0 24 1 -67 -36 -61 -25 -59 -68 4 -94 37 -16 292 -19 453 -6 232 18 318 26
355 32 14 2 54 7 90 10 36 4 79 8 95 11 63 9 112 15 160 19 70 7 145 15 175
20 14 2 57 6 95 10 39 3 93 8 120 10 28 3 79 7 115 10 83 6 179 14 255 20 33
3 92 8 130 10 39 3 88 7 110 10 22 2 78 7 124 10 46 4 94 9 105 11 12 2 71 6
131 9 128 5 156 -1 374 -75 84 -28 165 -54 180 -56 14 -2 46 -9 71 -14 25 -5
88 -14 140 -20 223 -25 251 -29 335 -41 188 -29 353 -97 436 -180 58 -58 431
-329 452 -329 2 0 43 -23 92 -50 133 -77 332 -172 554 -264 73 -31 161 -74
195 -97 222 -151 535 -460 659 -650 41 -64 55 -94 72 -154 4 -16 15 -40 23
-52 14 -22 13 -23 -19 -23 -19 0 -51 5 -73 11 -21 6 -46 12 -55 14 -9 2 -54
13 -101 25 -111 27 -122 29 -208 35 -102 6 -162 -18 -183 -73 -11 -29 -21 -82
-15 -82 2 0 21 16 40 35 20 19 42 35 49 36 6 0 22 2 34 3 14 2 44 -15 80 -44
32 -26 68 -52 79 -58 25 -13 105 -32 154 -37 143 -13 279 -62 350 -128 42 -39
75 -80 165 -212 68 -100 160 -217 223 -286 18 -20 40 -45 47 -55 13 -17 14
-17 15 -2 0 36 -55 150 -125 258 -96 147 -170 320 -144 336 7 4 134 -32 339
-99 19 -6 40 -12 45 -14 168 -44 223 -51 391 -50 145 1 164 -1 205 -21 25 -12
55 -31 67 -42 19 -18 22 -18 22 -4 0 60 -76 134 -164 159 -57 16 -87 20 -271
40 -121 12 -148 17 -212 37 -33 10 -44 24 -20 26 34 2 66 14 103 40 56 40 87
46 127 26 17 -10 37 -24 44 -33 16 -20 17 -6 1 22 -18 35 -72 77 -107 85 -23
5 -132 3 -161 -3 -14 -3 -38 -8 -55 -10 -16 -3 -56 -10 -89 -16 -132 -23 -216
-1 -321 85 -55 45 -63 53 -185 186 -47 51 -114 123 -150 160 -148 154 -228
239 -284 300 -64 72 -176 218 -176 232 0 9 62 11 200 8 133 -3 135 -4 132 -28
-3 -23 7 -29 24 -12 6 6 25 12 42 14 24 4 39 -2 64 -25 77 -72 151 -89 474
-104 164 -8 215 -35 328 -172 38 -46 96 -105 130 -131 122 -95 150 -137 128
-194 -13 -36 -2 -36 38 2 30 28 32 34 26 77 -6 45 -36 107 -73 149 -153 178
-207 254 -191 269 1 2 23 0 48 -5 25 -5 63 -11 85 -14 23 -4 52 -9 65 -12 14
-3 39 -7 55 -10 17 -2 59 -9 95 -15 36 -6 74 -13 85 -15 34 -5 139 -25 160
-29 6 -2 37 -8 70 -15 158 -32 317 -90 362 -132 26 -24 27 -19 13 34 -27 96
-208 188 -420 212 -30 4 -66 8 -80 10 -14 3 -59 7 -100 11 -85 7 -94 11 -54
21 16 4 75 24 132 46 56 21 115 38 131 38 36 0 83 -17 93 -33 4 -6 9 -9 12 -6
3 3 -4 24 -15 46 -25 51 -73 73 -145 68 -65 -5 -81 -9 -202 -49 -83 -27 -115
-33 -170 -30 -86 3 -102 7 -252 55 -69 23 -138 43 -154 45 -50 6 -40 11 56 29
51 9 127 25 168 36 41 11 91 24 111 29 132 34 423 162 594 263 215 127 465
336 597 499 18 22 48 59 67 82 59 70 157 227 206 326 25 52 52 106 60 120 17
33 91 266 99 310 3 19 8 46 11 60 3 14 7 36 10 49 24 121 24 449 0 583 -3 13
-7 42 -9 63 -28 260 -32 307 -30 401 3 192 24 286 99 436 95 191 247 297 615
429 96 34 179 66 185 71 15 13 -54 64 -120 87 -85 29 -103 32 -260 37 -355 11
-363 12 -552 110 -214 111 -335 144 -526 142 -59 -1 -108 -3 -110 -4z"/>
</g>
</svg>
